<svg width="104" height="71" viewBox="0 0 104 71" fill="none" xmlns="http://www.w3.org/2000/svg">
<rect y="1.54565" width="96.5577" height="58.1317" rx="4" fill="#954842"/>
<path d="M55.9123 10.5192L61.4404 3.38891L58.4997 1.54566L58.0855 1.54566L53.7817 8.0914C47.324 9.79641 37.1474 17.3088 43.7302 35.434C51.9485 58.0622 62.765 58.6161 75.2366 58.5689L75.929 57.0367C71.9493 49.5176 59.5538 46.3355 55.5854 33.6896C51.617 21.0437 58.1077 14.8445 55.9123 10.5192Z" fill="#F3E1CB"/>
<path d="M67.377 33.4634C60.7942 15.3382 70.9708 7.82582 77.4285 6.1208L80.4367 1.54564L84.9884 1.54564L79.5591 8.54862C81.7544 12.8739 75.2638 19.0732 79.2322 31.719C82.4558 41.9918 91.2406 46.0194 96.5575 51.2L96.5575 56.5948C85.0658 56.4893 75.08 54.673 67.377 33.4634Z" fill="#F3E1CB"/>
<path d="M54.9592 34.5027C48.0981 15.6112 59.3712 7.53931 66.4672 5.62953L69.3067 1.54566L74.1239 1.54566L68.7524 8.13657C71.0727 12.633 63.8564 19.2582 67.9603 32.4505C72.0642 45.6427 85.564 48.7485 89.7764 56.5621L88.9902 58.1824C75.3467 58.4658 63.5249 58.0875 54.9592 34.5027Z" fill="#FDD84C"/>
<path d="M5.76025 17.0145C5.31755 17.0145 5.09619 16.8069 5.09619 16.3919V5.7337C5.09619 5.31866 5.31755 5.11115 5.76025 5.11115H8.58252C10.7075 5.11115 12.1408 5.374 12.8823 5.89972C13.6294 6.4199 14.0029 7.22231 14.0029 8.30695C14.0029 9.06508 13.7235 9.65167 13.1646 10.0667C12.6112 10.4818 12.0744 10.7225 11.5542 10.7889V10.8138C12.0578 10.847 12.6499 11.1015 13.3306 11.5775C14.0112 12.0534 14.3516 12.7257 14.3516 13.5945C14.3516 14.6128 13.9365 15.4373 13.1064 16.0682C12.2764 16.699 10.9067 17.0145 8.99756 17.0145H5.76025ZM7.52002 14.9891H8.73193C9.90511 14.9891 10.702 14.8867 11.1226 14.6819C11.5487 14.4772 11.7617 14.0622 11.7617 13.4368C11.7617 12.8502 11.5155 12.4463 11.0229 12.2249C10.536 11.998 9.7723 11.8846 8.73193 11.8846H7.52002V14.9891ZM7.52002 9.9256H8.60742C9.32129 9.9256 9.98812 9.80109 10.6079 9.55206C11.2332 9.30304 11.5459 8.91567 11.5459 8.38995C11.5459 7.98045 11.3716 7.67055 11.0229 7.46027C10.6799 7.24445 9.87467 7.13654 8.60742 7.13654H7.52002V9.9256ZM20.4277 17.0145C20.0293 17.0145 19.8993 16.8318 20.0376 16.4666L24.105 5.78351C24.2765 5.33527 24.5366 5.11115 24.8853 5.11115H26.0474C26.396 5.11115 26.6561 5.33527 26.8276 5.78351L30.895 16.4666C31.0334 16.8318 30.9033 17.0145 30.5049 17.0145H29.1851C28.8198 17.0145 28.5653 16.8235 28.4214 16.4417L27.5747 14.2088H23.3579L22.5112 16.4417C22.3674 16.8235 22.1128 17.0145 21.7476 17.0145H20.4277ZM24.1299 12.1502H26.8027L25.7817 9.51056C25.66 9.20066 25.5853 8.97654 25.5576 8.8382C25.5355 8.69432 25.5106 8.48403 25.4829 8.20734H25.4497C25.422 8.48403 25.3944 8.69432 25.3667 8.8382C25.3446 8.97654 25.2726 9.20066 25.1509 9.51056L24.1299 12.1502ZM5.67725 55.0145C5.28988 55.0145 5.09619 54.8069 5.09619 54.3919V43.7337C5.09619 43.3187 5.28988 43.1111 5.67725 43.1111H6.90576C7.38167 43.1111 7.74137 43.3048 7.98486 43.6922L12.2183 50.4905H12.2764C12.2487 50.1585 12.2349 49.8265 12.2349 49.4944V43.7337C12.2349 43.3187 12.4285 43.1111 12.8159 43.1111H14.0776C14.465 43.1111 14.6587 43.3187 14.6587 43.7337V54.3919C14.6587 54.8069 14.465 55.0145 14.0776 55.0145H12.9321C12.4562 55.0145 12.0965 54.8208 11.853 54.4334L7.53662 47.5106H7.47852C7.50618 47.8426 7.52002 48.1746 7.52002 48.5067V54.3919C7.52002 54.8069 7.32633 55.0145 6.93896 55.0145H5.67725ZM21.1914 55.0145C20.793 55.0145 20.6629 54.8318 20.8013 54.4666L24.8687 43.7835C25.0402 43.3353 25.3003 43.1111 25.6489 43.1111H26.811C27.1597 43.1111 27.4198 43.3353 27.5913 43.7835L31.6587 54.4666C31.797 54.8318 31.667 55.0145 31.2686 55.0145H29.9487C29.5835 55.0145 29.3289 54.8235 29.1851 54.4417L28.3384 52.2088H24.1216L23.2749 54.4417C23.131 54.8235 22.8765 55.0145 22.5112 55.0145H21.1914ZM24.8936 50.1502H27.5664L26.5454 47.5106C26.4237 47.2007 26.349 46.9765 26.3213 46.8382C26.2992 46.6943 26.2743 46.484 26.2466 46.2073H26.2134C26.1857 46.484 26.158 46.6943 26.1304 46.8382C26.1082 46.9765 26.0363 47.2007 25.9146 47.5106L24.8936 50.1502Z" fill="#F3E1CB"/>
<path d="M5.67725 36.0145C5.28988 36.0145 5.09619 35.8069 5.09619 35.3919V24.7337C5.09619 24.3187 5.28988 24.1111 5.67725 24.1111H6.90576C7.38167 24.1111 7.74137 24.3048 7.98486 24.6922L12.2183 31.4905H12.2764C12.2487 31.1585 12.2349 30.8265 12.2349 30.4944V24.7337C12.2349 24.3187 12.4285 24.1111 12.8159 24.1111H14.0776C14.465 24.1111 14.6587 24.3187 14.6587 24.7337V35.3919C14.6587 35.8069 14.465 36.0145 14.0776 36.0145H12.9321C12.4562 36.0145 12.0965 35.8208 11.853 35.4334L7.53662 28.5106H7.47852C7.50618 28.8426 7.52002 29.1746 7.52002 29.5067V35.3919C7.52002 35.8069 7.32633 36.0145 6.93896 36.0145H5.67725ZM21.1914 36.0145C20.793 36.0145 20.6629 35.8318 20.8013 35.4666L24.8687 24.7835C25.0402 24.3353 25.3003 24.1111 25.6489 24.1111H26.811C27.1597 24.1111 27.4198 24.3353 27.5913 24.7835L31.6587 35.4666C31.797 35.8318 31.667 36.0145 31.2686 36.0145H29.9487C29.5835 36.0145 29.3289 35.8235 29.1851 35.4417L28.3384 33.2088H24.1216L23.2749 35.4417C23.131 35.8235 22.8765 36.0145 22.5112 36.0145H21.1914ZM24.8936 31.1502H27.5664L26.5454 28.5106C26.4237 28.2007 26.349 27.9765 26.3213 27.8382C26.2992 27.6943 26.2743 27.484 26.2466 27.2073H26.2134C26.1857 27.484 26.158 27.6943 26.1304 27.8382C26.1082 27.9765 26.0363 28.2007 25.9146 28.5106L24.8936 31.1502Z" fill="#FDD84C"/>
<path d="M2.78613 70C2.62663 70 2.54688 69.9146 2.54688 69.7437V65.355C2.54688 65.1841 2.62663 65.0986 2.78613 65.0986H3.30566C3.46517 65.0986 3.54492 65.1841 3.54492 65.355V67.0264H5.38379V65.355C5.38379 65.1841 5.46354 65.0986 5.62305 65.0986H6.14258C6.30208 65.0986 6.38184 65.1841 6.38184 65.355V69.7437C6.38184 69.9146 6.30208 70 6.14258 70H5.62305C5.46354 70 5.38379 69.9146 5.38379 69.7437V67.874H3.54492V69.7437C3.54492 69.9146 3.46517 70 3.30566 70H2.78613ZM11.3118 70C11.1477 70 11.0942 69.9248 11.1511 69.7744L12.8259 65.3755C12.8966 65.1909 13.0037 65.0986 13.1472 65.0986H13.6257C13.7693 65.0986 13.8764 65.1909 13.947 65.3755L15.6218 69.7744C15.6788 69.9248 15.6253 70 15.4612 70H14.9177C14.7673 70 14.6625 69.9214 14.6033 69.7642L14.2546 68.8447H12.5183L12.1697 69.7642C12.1104 69.9214 12.0056 70 11.8552 70H11.3118ZM12.8362 67.9971H13.9368L13.5164 66.9102C13.4662 66.7826 13.4355 66.6903 13.4241 66.6333C13.415 66.5741 13.4047 66.4875 13.3933 66.3735H13.3796C13.3683 66.4875 13.3569 66.5741 13.3455 66.6333C13.3364 66.6903 13.3067 66.7826 13.2566 66.9102L12.8362 67.9971ZM20.4595 70C20.3 70 20.2202 69.9146 20.2202 69.7437V65.355C20.2202 65.1841 20.3 65.0986 20.4595 65.0986H21.7378C22.5581 65.0986 23.1266 65.2319 23.4434 65.4985C23.7624 65.7651 23.9219 66.1434 23.9219 66.6333C23.9219 67.1232 23.7624 67.5015 23.4434 67.7681C23.1266 68.0347 22.5581 68.168 21.7378 68.168H21.2183V69.7437C21.2183 69.9146 21.1385 70 20.979 70H20.4595ZM21.2183 67.334H21.7344C22.1901 67.334 22.5 67.2804 22.6641 67.1733C22.8281 67.064 22.9102 66.884 22.9102 66.6333C22.9102 66.3826 22.8281 66.2038 22.6641 66.0967C22.5 65.9873 22.1901 65.9326 21.7344 65.9326H21.2183V67.334ZM28.9886 70C28.829 70 28.7493 69.9146 28.7493 69.7437V65.355C28.7493 65.1841 28.829 65.0986 28.9886 65.0986H30.2669C31.0872 65.0986 31.6557 65.2319 31.9724 65.4985C32.2915 65.7651 32.451 66.1434 32.451 66.6333C32.451 67.1232 32.2915 67.5015 31.9724 67.7681C31.6557 68.0347 31.0872 68.168 30.2669 68.168H29.7473V69.7437C29.7473 69.9146 29.6676 70 29.5081 70H28.9886ZM29.7473 67.334H30.2635C30.7192 67.334 31.0291 67.2804 31.1931 67.1733C31.3572 67.064 31.4392 66.884 31.4392 66.6333C31.4392 66.3826 31.3572 66.2038 31.1931 66.0967C31.0291 65.9873 30.7192 65.9326 30.2635 65.9326H29.7473V67.334ZM37.0801 65.3926C36.9639 65.1966 37.0175 65.0986 37.2408 65.0986H37.8389C37.9574 65.0986 38.0622 65.1772 38.1534 65.3345L38.8814 66.6025C38.9019 66.6367 38.9623 66.7438 39.0625 66.9238C39.1628 67.1016 39.2209 67.2747 39.2369 67.4434H39.2505C39.2665 67.2747 39.3246 67.1016 39.4248 66.9238C39.5251 66.7438 39.5855 66.6367 39.606 66.6025L40.334 65.3345C40.4252 65.1772 40.53 65.0986 40.6485 65.0986H41.2466C41.4699 65.0986 41.5235 65.1966 41.4073 65.3926L39.7427 68.2056V69.812C39.7427 69.9373 39.663 70 39.5035 70H38.9839C38.8244 70 38.7447 69.9373 38.7447 69.812V68.2056L37.0801 65.3926ZM52.566 70C52.4065 70 52.3267 69.9146 52.3267 69.7437V65.355C52.3267 65.1841 52.4065 65.0986 52.566 65.0986H53.0855C53.245 65.0986 53.3248 65.1841 53.3248 65.355V67.0264H55.1636V65.355C55.1636 65.1841 55.2434 65.0986 55.4029 65.0986H55.9224C56.0819 65.0986 56.1617 65.1841 56.1617 65.355V69.7437C56.1617 69.9146 56.0819 70 55.9224 70H55.4029C55.2434 70 55.1636 69.9146 55.1636 69.7437V67.874H53.3248V69.7437C53.3248 69.9146 53.245 70 53.0855 70H52.566ZM60.9925 67.5493C60.9925 66.7632 61.1953 66.1388 61.6009 65.6763C62.0065 65.2137 62.5853 64.9824 63.3372 64.9824C64.0892 64.9824 64.668 65.2137 65.0736 65.6763C65.4792 66.1388 65.682 66.7632 65.682 67.5493C65.682 68.3354 65.4792 68.9598 65.0736 69.4224C64.668 69.8849 64.0892 70.1162 63.3372 70.1162C62.5853 70.1162 62.0065 69.8849 61.6009 69.4224C61.1953 68.9598 60.9925 68.3354 60.9925 67.5493ZM62.0589 67.5493C62.0589 68.119 62.1603 68.5553 62.3631 68.8584C62.5682 69.1592 62.8929 69.3096 63.3372 69.3096C63.7816 69.3096 64.1051 69.1592 64.3079 68.8584C64.513 68.5553 64.6155 68.119 64.6155 67.5493C64.6155 66.9797 64.513 66.5444 64.3079 66.2437C64.1051 65.9406 63.7816 65.7891 63.3372 65.7891C62.8929 65.7891 62.5682 65.9406 62.3631 66.2437C62.1603 66.5444 62.0589 66.9797 62.0589 67.5493ZM70.5128 67.9595V65.2866C70.5128 65.1613 70.5925 65.0986 70.752 65.0986H71.2716C71.4311 65.0986 71.5108 65.1613 71.5108 65.2866V67.9253C71.5108 68.5405 71.6008 68.9256 71.7808 69.0806C71.9631 69.2332 72.1682 69.3096 72.3961 69.3096C72.6239 69.3096 72.8279 69.2332 73.0079 69.0806C73.1902 68.9256 73.2813 68.5405 73.2813 67.9253V65.2866C73.2813 65.1613 73.3611 65.0986 73.5206 65.0986H74.0401C74.1996 65.0986 74.2794 65.1613 74.2794 65.2866V67.9595C74.2794 68.757 74.1108 69.3164 73.7735 69.6377C73.4363 69.9567 72.9771 70.1162 72.3961 70.1162C71.815 70.1162 71.3559 69.9567 71.0186 69.6377C70.6814 69.3164 70.5128 68.757 70.5128 67.9595ZM79.4212 69.6343C79.28 69.5272 79.2458 69.4189 79.3187 69.3096L79.5819 68.9131C79.6685 68.7832 79.7949 68.7764 79.9613 68.8926C80.0889 68.9814 80.2552 69.0737 80.4603 69.1694C80.6677 69.2629 80.8853 69.3096 81.1131 69.3096C81.2726 69.3096 81.4264 69.2913 81.5746 69.2549C81.7227 69.2184 81.8355 69.1478 81.9129 69.043C81.9904 68.9382 82.0291 68.814 82.0291 68.6704C82.0291 68.5679 82.0121 68.4779 81.9779 68.4004C81.9437 68.3229 81.8879 68.2591 81.8104 68.209C81.7329 68.1589 81.6532 68.1167 81.5711 68.0825C81.4276 68.0233 81.2464 67.9652 81.0277 67.9082C80.8112 67.849 80.597 67.7783 80.3851 67.6963C80.196 67.6234 80.0228 67.5231 79.8656 67.3955C79.7083 67.2679 79.5864 67.1243 79.4998 66.9648C79.4133 66.8053 79.37 66.5923 79.37 66.3257C79.37 66.009 79.4725 65.7378 79.6776 65.5122C79.8827 65.2866 80.1185 65.1419 80.3851 65.0781C80.6517 65.0143 80.9206 64.9824 81.1917 64.9824C81.4606 64.9824 81.7375 65.0234 82.0223 65.1055C82.3094 65.1875 82.5259 65.29 82.6717 65.4131C82.8153 65.5339 82.8506 65.6432 82.7777 65.7412L82.5008 66.1138C82.4074 66.2414 82.2821 66.2516 82.1248 66.1445C82.0246 66.0762 81.8867 65.9998 81.7113 65.9155C81.5381 65.8312 81.3569 65.7891 81.1678 65.7891C81.0334 65.7891 80.9092 65.8005 80.7953 65.8232C80.6836 65.846 80.5845 65.9007 80.4979 65.9873C80.4113 66.0739 80.368 66.181 80.368 66.3086C80.368 66.4316 80.3999 66.5319 80.4637 66.6094C80.5275 66.6846 80.5982 66.7415 80.6756 66.7803C80.7531 66.8167 80.8317 66.8475 80.9115 66.8726C81.1576 66.9523 81.3775 67.0229 81.5711 67.0845C81.7648 67.1437 81.9437 67.2098 82.1078 67.2827C82.3356 67.3853 82.5099 67.4878 82.6307 67.5903C82.7515 67.6929 82.8506 67.833 82.9281 68.0107C83.0078 68.1885 83.0477 68.4004 83.0477 68.6465C83.0477 69.0111 82.9315 69.313 82.6991 69.5522C82.4666 69.7892 82.208 69.9419 81.9232 70.0103C81.6406 70.0809 81.3649 70.1162 81.096 70.1162C80.6996 70.1162 80.3771 70.0775 80.1288 70C79.8804 69.9248 79.6445 69.8029 79.4212 69.6343ZM88.0631 70C87.9036 70 87.8238 69.9146 87.8238 69.7437V65.355C87.8238 65.1841 87.9036 65.0986 88.0631 65.0986H90.9957C91.1666 65.0986 91.2521 65.1727 91.2521 65.3208V65.7241C91.2521 65.8722 91.1666 65.9463 90.9957 65.9463H88.8219V67.0332H90.8146C90.9855 67.0332 91.0709 67.1073 91.0709 67.2554V67.6587C91.0709 67.8068 90.9855 67.8809 90.8146 67.8809H88.8219V69.1523H91.1051C91.276 69.1523 91.3614 69.2264 91.3614 69.3745V69.7778C91.3614 69.9259 91.276 70 91.1051 70H88.0631Z" fill="#965048"/>
</svg>
